<svg width="1196" height="296" xmlns="http://www.w3.org/2000/svg" xmlns:xlink="http://www.w3.org/1999/xlink" overflow="hidden">
    <defs>
        <clipPath id="clip0"><rect x="776" y="1202" width="1196" height="296"/></clipPath>
        <clipPath id="clip1"><rect x="775" y="1202" width="1198" height="292"/></clipPath>
        <clipPath id="clip2"><rect x="775" y="1202" width="1198" height="292"/></clipPath>
        <clipPath id="clip3"><rect x="775" y="1202" width="1198" height="292"/></clipPath>
    </defs>
    <g clip-path="url(#clip0)" transform="translate(-776 -1202)">
        <g clip-path="url(#clip1)"><g clip-path="url(#clip2)"><g clip-path="url(#clip3)">
            <path d="M86.669 227.681 0 227.681 0 4.13053 79.7905 4.13053C87.6888 4.10806 95.5813 4.56172 103.425 5.48904 109.772 6.2428 116.064 7.39725 122.265 8.94548 127.499 10.2298 132.573 12.0963 137.391 14.5102 143.066 17.3472 148.192 21.169 152.531 25.7978 159.122 32.8964 162.799 42.5985 163.56 54.9041 163.66 56.5496 163.71 58.1978 163.708 59.8463 163.667 66.5852 162.234 73.2429 159.498 79.4019 158.111 82.5821 156.471 85.646 154.594 88.564 150.253 95.2822 144.101 100.636 136.848 104.006 133.328 105.686 129.653 107.023 125.876 107.996L125.876 109.371C130.845 110.279 135.731 111.595 140.483 113.306 145.672 115.209 150.246 117.541 154.205 120.301 156.843 122.127 159.279 124.227 161.473 126.568 168.972 134.611 172.917 145.541 173.307 159.357 173.328 160.121 173.338 160.884 173.338 161.648 173.378 167.216 172.792 172.771 171.591 178.208 169.927 185.907 166.525 193.124 161.645 199.308 155.154 207.346 146.854 213.735 137.422 217.952 135.109 219.012 132.749 219.963 130.347 220.803 117.278 225.389 102.719 227.681 86.669 227.681ZM59.155 133.446 59.155 182.283 82.5419 182.283C85.5021 182.297 88.4606 182.134 91.4014 181.795 98.5986 180.928 104.072 178.913 107.82 175.749 111.47 172.644 113.956 168.391 114.871 163.687 115.343 161.434 115.574 159.136 115.559 156.833 115.559 148.579 112.979 142.617 107.82 138.949 105.934 137.649 103.869 136.631 101.688 135.929 96.7815 134.274 90.3994 133.446 82.5419 133.446L59.155 133.446ZM59.155 49.5286 59.155 92.1752 78.4148 92.1752C88.0447 92.1752 95.0378 89.997 99.3942 85.6406 103.072 81.9622 105.331 77.1014 105.771 71.9181 105.878 70.8783 105.931 69.8336 105.929 68.7883 105.945 66.9137 105.755 65.0429 105.361 63.2099 104.839 60.8827 103.957 58.8776 102.716 57.1946 101.797 55.9496 100.674 54.8693 99.3942 53.9996 97.8041 52.9445 96.0732 52.119 94.2525 51.5474 90.7743 50.401 86.4351 49.743 81.235 49.5733 80.2952 49.5429 79.355 49.528 78.4148 49.5286L59.155 49.5286Z" stroke="#000000" stroke-width="3.43925" stroke-linecap="round" transform="matrix(1.00043 0 0 1 776 1202.52)"/>
            <path d="M244.874 227.681 184.344 227.681 251.753 4.13053 323.289 4.13053 390.698 227.681 328.104 227.681 302.998 119.001C300.705 108.225 298.068 96.5316 295.087 83.921 292.107 71.3105 289.355 59.3877 286.833 48.1529L285.457 48.1529C283.165 59.3877 280.642 71.3105 277.891 83.921 275.14 96.5316 272.503 108.225 269.981 119.001L244.874 227.681ZM341.517 180.22 232.837 180.22 232.837 134.478 341.517 134.478 341.517 180.22Z" stroke="#000000" stroke-width="3.43925" stroke-linecap="round" transform="matrix(1.00043 0 0 1 776 1202.52)"/>
            <path d="M559.221 227.681 504.193 227.681 504.193 109.371C504.196 106.442 504.236 103.513 504.314 100.584 504.38 97.9956 504.475 95.2843 504.599 92.4504 504.729 89.4915 504.88 86.5337 505.053 83.5771 505.258 80.0573 505.448 76.5366 505.624 73.0152 505.764 70.2317 505.887 67.5697 505.992 65.0293 506.093 62.6142 506.181 60.1987 506.257 57.7828L504.881 57.7828C501.337 63.9715 497.593 70.0438 493.656 75.9901 493.386 76.3988 493.115 76.8069 492.844 77.2145 488.488 83.7491 484.36 90.341 480.463 96.9902L457.764 134.134 584.328 134.134 584.328 178.844 402.048 178.844 402.048 137.573 486.309 9.63333 559.221 9.63333 559.221 227.681Z" stroke="#000000" stroke-width="3.43925" stroke-linecap="round" transform="matrix(1.00043 0 0 1 776 1202.52)"/>
            <path d="" stroke="#000000" stroke-width="3.43925" stroke-linecap="round" fill="none" transform="matrix(1.00043 0 0 1 776 1202.52)"/>
            <path d="M998.757 28.8931 966.428 65.3491C962.491 61.7353 958.089 58.6633 953.338 56.2145 952.273 55.6705 951.19 55.1612 950.092 54.6874 946.469 53.147 942.662 52.0845 938.766 51.5268 935.854 51.1024 932.915 50.8944 929.972 50.9043 920.801 50.9043 912.547 53.4837 905.209 58.6426 900.258 62.1702 896.011 66.595 892.691 71.6876 890.773 74.593 889.093 77.649 887.669 80.8257 883.652 89.7035 881.488 100.237 881.176 112.425 881.149 113.471 881.135 114.516 881.135 115.562 881.112 120.9 881.471 126.233 882.208 131.52 883.013 137.106 884.268 142.252 885.974 146.959 886.488 148.379 887.053 149.779 887.669 151.158 889.603 155.565 892.09 159.709 895.071 163.488 898.122 167.337 901.778 170.665 905.897 173.341 913.693 178.386 922.635 180.908 932.723 180.908 940.06 180.908 946.767 179.188 952.843 175.749 958.919 172.31 964.364 168.068 969.179 163.024L1001.51 198.792C992.337 209.797 981.331 218.052 968.492 223.554 957.184 228.345 945.115 231.084 932.847 231.643 930.744 231.753 928.639 231.808 926.533 231.809 912.547 231.809 899.191 229.458 886.466 224.758 873.74 220.058 862.448 212.95 852.589 203.435 845.161 196.194 838.953 187.799 834.206 178.576 832.355 175.027 830.684 171.385 829.202 167.667 826.051 159.665 823.8 151.338 822.492 142.839 821.254 135.073 820.625 126.807 820.604 118.042 820.604 117.903 820.604 117.764 820.604 117.626 820.549 107.684 821.43 97.7593 823.235 87.9828 825.64 75.3516 829.693 63.9665 835.393 53.8276 841.616 42.5346 849.865 32.4829 859.725 24.1745 864.461 20.2343 869.556 16.7476 874.944 13.7604 890.595 5.13229 908.107 0.431586 925.976 0.0619062 927.307 0.0220676 928.64 0.00257627 929.972 0.003439 944.417 0.00343916 957.543 2.9268 969.351 8.77352 974.884 11.4889 980.223 14.5824 985.33 18.032 990.11 21.2585 994.603 24.8924 998.757 28.8931Z" fill="#C00000" stroke="#C00000" stroke-width="3.43925" stroke-linecap="round" transform="matrix(1.00043 0 0 1 776 1202.52)"/>
            <path d="M1086.8 227.681 1030.4 227.681 1030.4 4.13053 1090.24 4.13053 1127.73 103.869 1145.96 154.082 1147.33 154.082C1146.69 148.444 1146.03 142.809 1145.33 137.178 1144.39 129.524 1143.33 121.345 1142.17 112.639 1140.92 103.34 1140.03 93.9949 1139.51 84.6261 1139.23 79.3517 1139.08 74.0705 1139.08 68.7883L1139.08 4.13053 1195.48 4.13053 1195.48 227.681 1135.64 227.681 1098.15 127.599 1079.92 77.7304 1078.55 77.7304C1079.92 90.341 1081.64 104.27 1083.71 119.517 1084.96 128.716 1085.85 137.961 1086.36 147.231 1086.65 152.49 1086.8 157.756 1086.8 163.024L1086.8 227.681Z" fill="#C00000" stroke="#C00000" stroke-width="3.43925" stroke-linecap="round" transform="matrix(1.00043 0 0 1 776 1202.52)"/>
        </g></g></g>
        <path d="M1444.47 1431.32C1453.26 1433.83 1462.36 1435.06 1471.5 1435 1474.96 1435 1478.42 1434.84 1481.86 1434.5 1495.17 1433.34 1508 1429.04 1519.31 1421.97 1526.93 1417.14 1533.65 1411.02 1539.16 1403.88 1544.1 1397.47 1548.24 1390.48 1551.48 1383.07 1559.16 1365.82 1563 1344.29 1563 1318.47 1563 1304.72 1561.85 1292.19 1559.55 1280.87 1557.83 1272.06 1555.12 1263.46 1551.48 1255.24 1549.41 1250.62 1547 1246.15 1544.27 1241.88 1537.94 1231.77 1529.41 1223.22 1519.31 1216.85 1505.56 1208.28 1489.62 1204 1471.5 1204 1467.63 1203.99 1463.77 1204.2 1459.93 1204.61 1447.07 1205.89 1434.67 1210.08 1423.69 1216.85 1416.3 1221.47 1409.75 1227.31 1404.31 1234.11 1399.17 1240.58 1394.87 1247.68 1391.53 1255.24 1389.98 1258.67 1388.62 1262.17 1387.44 1265.74 1384.8 1273.72 1382.86 1282.44 1381.62 1291.91 1380.51 1300.72 1379.97 1309.59 1380 1318.47 1380 1344.29 1383.84 1365.82 1391.53 1383.07 1393.71 1388.01 1396.26 1392.76 1399.17 1397.3 1405.42 1407.23 1413.79 1415.65 1423.69 1421.97 1430.14 1426.04 1437.14 1429.19 1444.47 1431.32ZM1471.5 1387.02C1477.59 1387.09 1483.44 1384.67 1487.69 1380.32 1487.8 1380.21 1487.91 1380.1 1488.01 1379.99 1489.86 1378.07 1491.44 1375.92 1492.73 1373.59 1495.12 1369.41 1497.09 1364.18 1498.67 1357.9 1498.67 1357.9 1498.68 1357.89 1498.68 1357.88 1499.6 1354.11 1500.32 1350.28 1500.83 1346.42 1501.92 1338.43 1502.46 1329.12 1502.46 1318.47 1502.47 1313.53 1502.3 1308.59 1501.94 1303.66 1501.59 1299.02 1501.06 1294.71 1500.36 1290.72 1499.91 1288.13 1499.35 1285.55 1498.68 1283 1497.92 1280.09 1496.97 1277.23 1495.86 1274.44 1493.71 1269.12 1491.09 1264.9 1488.01 1261.75 1485.67 1259.3 1482.82 1257.4 1479.66 1256.17 1477.05 1255.19 1474.29 1254.7 1471.5 1254.72 1465.41 1254.65 1459.56 1257.07 1455.31 1261.42 1455.2 1261.53 1455.1 1261.64 1454.99 1261.75 1453.04 1263.78 1451.37 1266.04 1450 1268.49 1448.73 1270.72 1447.57 1273.23 1446.53 1276.01 1445.68 1278.3 1444.95 1280.64 1444.33 1283 1443.33 1286.83 1442.55 1290.73 1442.02 1294.65 1441.03 1301.68 1440.54 1309.62 1440.54 1318.47 1440.54 1323.24 1440.66 1328.01 1440.91 1332.78 1441.18 1337.69 1441.61 1342.24 1442.17 1346.42 1442.68 1350.28 1443.4 1354.11 1444.33 1357.88 1445.93 1364.26 1447.94 1369.56 1450.37 1373.78 1451.64 1376.03 1453.19 1378.12 1454.99 1379.99 1457.33 1382.44 1460.18 1384.34 1463.34 1385.57 1465.95 1386.55 1468.71 1387.04 1471.5 1387.02Z" fill-rule="evenodd"/><path d="M1444.5 1430.73 1504.66 1424.5C1506.73 1431.19 1510.02 1436.33 1514.51 1439.9 1519.01 1443.48 1524.02 1445.96 1529.55 1447.35 1535.08 1448.73 1540.39 1449.42 1545.46 1449.42 1548.91 1449.42 1552.31 1448.9 1555.66 1447.86 1556.94 1447.47 1558.21 1447.04 1559.47 1446.57 1560.67 1446.13 1561.77 1445.67 1562.79 1445.21 1563.24 1445.01 1563.69 1444.8 1564.13 1444.58L1574.5 1488.19C1572.94 1489.15 1571.31 1490 1569.62 1490.73 1566.8 1491.98 1563.53 1493.09 1559.81 1494.07 1553.7 1495.69 1546.61 1496.5 1538.54 1496.5 1528.94 1496.57 1519.37 1495.39 1510.07 1492.98 1499.03 1490.11 1488.67 1485.06 1479.59 1478.15 1463.57 1465.92 1451.88 1450.11 1444.5 1430.73Z" stroke="#000000" stroke-width="3.24803" stroke-linecap="round" stroke-miterlimit="8" fill-rule="evenodd"/><path d="M1584 1451.5C1584 1436.31 1596.09 1424 1611 1424 1625.91 1424 1638 1436.31 1638 1451.5 1638 1466.69 1625.91 1479 1611 1479 1596.09 1479 1584 1466.69 1584 1451.5Z" fill="#C00000" fill-rule="evenodd"/>
    </g>
</svg>